<?xml version="1.0"?>
<svg xmlns="http://www.w3.org/2000/svg" viewBox="0 0 64 64" width="512" height="512"><g id="flat"><rect x="36" y="3" width="16" height="20" rx="8" ry="8" style="fill:#f5c09a"/><path d="M61,61H27V35a8,8,0,0,1,8-8H53a8,8,0,0,1,8,8Z" style="fill:#d6d6d4"/><polygon points="47 27 41 27 43 32 45 32 47 27" style="fill:#4398d1"/><polygon points="43 32 41 54 44 57 47 54 45 32 43 32" style="fill:#4398d1"/><path d="M44,3a7.992,7.992,0,0,0-2,.262A8,8,0,0,1,48,11v4a8,8,0,0,1-6,7.738A7.973,7.973,0,0,0,52,15V11A8,8,0,0,0,44,3Z" style="fill:#f5b78c"/><path d="M39,37.273V27H35a8,8,0,0,0-8,8V58.059l.169-.1A24,24,0,0,0,39,37.273Z" style="fill:#c9c9c9"/><rect x="53" y="35" width="2" height="26" style="fill:#bfbfbf"/><rect x="33" y="44" width="2" height="17" style="fill:#bfbfbf"/><path d="M20,61l5.168-3.04A24,24,0,0,0,37,37.273V26h0a27,27,0,0,1-16.2-5.4L20,20l-.8.6A27,27,0,0,1,3,26H3V37.273A24,24,0,0,0,14.832,57.96Z" style="fill:#4398d1"/><path d="M30.7,25.247A49.227,49.227,0,0,1,8.056,52a23.984,23.984,0,0,0,6.776,5.964L20,61l5.169-3.04A24,24,0,0,0,37,37.273V26A26.948,26.948,0,0,1,30.7,25.247Z" style="fill:#3a8ec7"/><path d="M16.859,54.512A20.078,20.078,0,0,1,7,37.273V29.736a31.265,31.265,0,0,0,13-4.815,31.26,31.26,0,0,0,13,4.815v7.537a20.08,20.08,0,0,1-9.86,17.24L20,56.359Z" style="fill:#327fb3"/><rect x="19" y="29" width="2" height="2" style="fill:#5ea9db"/><rect x="10" y="32" width="2" height="2" style="fill:#5ea9db"/><rect x="10" y="39" width="2" height="2" style="fill:#5ea9db"/><rect x="28" y="32" width="2" height="2" style="fill:#5ea9db"/><rect x="28" y="39" width="2" height="2" style="fill:#5ea9db"/><rect x="13" y="45" width="2" height="2" style="fill:#5ea9db"/><rect x="25" y="45" width="2" height="2" style="fill:#5ea9db"/><rect x="19" y="50" width="2" height="2" style="fill:#5ea9db"/><path d="M20,24.921A31.265,31.265,0,0,1,7,29.736v2.641a31.278,31.278,0,0,0,13-4.815,31.273,31.273,0,0,0,13,4.815V29.736A31.26,31.26,0,0,1,20,24.921Z" style="fill:#2f76a6"/></g></svg>
