<svg height="499pt" viewBox="0 -3 499.0861 499" width="499pt" xmlns="http://www.w3.org/2000/svg"><path d="m377.644531 300.261719c-44.199219-1.578125-71.101562 16.722656-163.980469 62.160156l-81.121093-44.019531-30.839844-16.738282c3.179687-42.261718 18.902344-151.261718 96.839844-194.300781 0 0-55.617188-40.601562-50.519531-92.859375.359374-3.640625 3.378906-6.460937 7.0625-6.460937h169.296874c3.679688 0 6.703126 2.820312 7.0625 6.460937 5.097657 52.257813-50.519531 92.859375-50.519531 92.859375 77.097657 42.578125 93.320313 149.699219 96.71875 192.898438zm0 0" fill="#b76c6c"/><path d="m377.644531 300.261719c-44.199219-1.578125-71.101562 16.722656-163.980469 62.160156l-81.121093-44.019531-30.839844-16.738282c3.179687-42.261718 18.902344-151.261718 96.839844-194.300781 0 0-55.617188-40.601562-50.519531-92.859375.359374-3.640625 3.378906-6.460937 7.0625-6.460937h169.296874c3.679688 0 6.703126 2.820312 7.0625 6.460937 5.097657 52.257813-50.519531 92.859375-50.519531 92.859375 77.097657 42.578125 93.320313 149.699219 96.71875 192.898438zm0 0" fill="#c98585"/><path d="m377.644531 300.261719c-44.199219-1.578125-71.101562 16.722656-163.980469 62.160156l-81.121093-44.019531c4.722656-50.300782 23.28125-170.878906 96-211.039063 0 0-55.617188-40.601562-50.519531-92.859375.359374-3.640625 3.378906-6.460937 7.0625-6.460937h139.296874c3.679688 0 6.703126 2.820312 7.0625 6.460937 5.097657 52.257813-50.519531 92.859375-50.519531 92.859375 77.097657 42.578125 93.320313 149.699219 96.71875 192.898438zm0 0" fill="#b76c6c"/><path d="m377.644531 300.261719c-10.960937-.398438-20.859375.441406-30.960937 2.601562-5.097656-50.238281-24.238282-149.621093-95.757813-190.941406 0 0 55.617188-42.457031 50.519531-97.117187-.359374-3.820313-3.382812-6.761719-7.0625-6.761719h30c3.679688 0 6.703126 2.820312 7.0625 6.460937 5.097657 52.257813-50.519531 92.859375-50.519531 92.859375 77.097657 42.578125 93.320313 149.699219 96.71875 192.898438zm0 0" fill="#965959"/><path d="m389.675781 300.882812c-4.554687-.414062-9.128906-.632812-13.707031-.632812-16.363281 0-32.78125 2.640625-48.566406 7.96875-6.269532 2.105469-12.371094 4.597656-18.277344 7.503906l-95.464844 46.703125-159.738281-86.675781c-4.820313-2.757812-10.050781-4.066406-15.230469-4.066406-10.601562 0-20.917968 5.519531-26.582031 15.375-8.425781 14.644531-3.367187 33.382812 11.304687 41.785156l157.929688 144.683594c.09375.070312.191406.167968.289062.242187 15.421876 11.765625 36 14.332031 54.160157 7.480469l127.636719-48.203125c14.164062-4.769531 29.003906-5.808594 43.191406-3.4375 8.28125 1.378906 16.34375 3.921875 23.96875 7.578125v-126.746094c-13.195313-5.082031-26.96875-8.277344-40.914063-9.558594zm0 0" fill="#ffbb98"/><path d="m491.117188 290.394531v158.859375c0 6.058594-4.898438 10.960938-10.960938 10.960938h-38.597656c-6.058594 0-10.960938-4.902344-10.960938-10.960938v-158.859375c0-6.042969 4.902344-10.960937 10.960938-10.960937h38.597656c6.0625 0 10.960938 4.917968 10.960938 10.960937zm0 0" fill="#5fcdff"/><path d="m491.117188 290.394531v158.859375c0 6.058594-4.898438 10.960938-10.960938 10.960938h-8.597656c-6.058594 0-10.960938-4.902344-10.960938-10.960938v-158.859375c0-6.042969 4.902344-10.960937 10.960938-10.960937h8.597656c6.0625 0 10.960938 4.917968 10.960938 10.960937zm0 0" fill="#30b6ff"/><path d="m389.675781 300.882812c-4.554687-.414062-9.128906-.632812-13.707031-.632812-16.363281 0-32.78125 2.640625-48.566406 7.96875-6.269532 2.105469-12.371094 4.597656-18.277344 7.503906l-95.464844 46.703125-15.128906 7.40625c-9.902344 4.988281-15.617188 15.011719-15.617188 25.371094 0 4.3125.96875 8.695313 3.050782 12.785156 7.070312 14.019531 24.136718 19.660157 38.15625 12.589844l117.199218-57.328125s33.957032-15.238281 75.617188-12.316406l13.652344 1.09375v-41.585938c-13.195313-5.082031-26.96875-8.277344-40.914063-9.558594zm0 0" fill="#ffcaa6"/><path d="m240.84375 349.003906c14.960938-7.78125 27.539062-14.179687 38.71875-19.300781-11.316406 5.578125-24.058594 11.980469-38.71875 19.300781zm0 0" fill="#965959"/><g fill="#5f266d"><path d="m480.125 271.78125h-38.597656c-10.460938 0-18.960938 8.5-18.960938 18.960938v8.820312c-12.261718-3.738281-24.859375-5.960938-37.519531-6.679688-6.710937-69.476562-31.996094-147.695312-90.359375-186.519531 16.4375-14.679687 48.917969-49.539062 44.71875-92.621093-.761719-7.820313-7.21875-13.6992192-15.019531-13.6992192h-169.300781c-7.800782 0-14.261719 5.8789062-15.019532 13.6992192-4.199218 43.082031 28.28125 77.941406 44.71875 92.621093-57.261718 38.09375-82.730468 114.113281-89.980468 182.800781l-36.898438-20.019531c-29.738281-17.046875-65.46875 10.492188-56.5 43.578125 2.621094 9.660156 8.71875 17.761719 17.238281 22.921875 10.902344 10 157.402344 144.257813 158.121094 144.796875 16.96875 12.925782 40.507813 16.660156 61.839844 8.601563l127.5-48.140625c18.5-6.199219 38.378906-5.539063 56.460937 1.820312v6.839844c0 10.460938 8.5 18.960938 18.960938 18.960938h38.597656c10.441406 0 18.960938-8.5 18.960938-18.960938v-158.820312c0-10.460938-8.523438-18.960938-18.960938-18.960938zm-324.222656-255.738281h167.640625c3.519531 41.351562-36 75.765625-45.371094 83.3125h-76.875c-9.371094-7.507813-48.910156-41.941407-45.394531-83.3125zm44.773437 99.3125h78.097657c59.050781 35.855469 83.011718 108.832031 90.109374 177.40625-41.800781 1.800781-57.164062 13.097656-155.019531 60.980469l-103.757812-56.277344c6.332031-69.972656 29.929687-144.792969 90.570312-182.109375zm221.886719 310.308593c-20.039062-6.660156-41.539062-6.679687-61.71875.140626-.21875.050781-127.6875 48.199218-127.898438 48.277343-15.601562 5.902344-33.261718 3.542969-46.203124-6.160156-.878907-.800781-158.292969-145.117187-159.339844-145.679687-5.238282-3-8.976563-7.859376-10.558594-13.699219-5.230469-19.332031 15.582031-35.5625 33.261719-25.417969 106.953125 58-12.617188-6.808594 146.117187 79.257812-36.035156 17.738282-22.824218 69.558594 15.179688 69.558594 11.203125 0 4.269531 1.988282 135.703125-62.296875 9.460937-4.636719 2.488281-19.007812-7.042969-14.363281-12.953125 6.332031-81.902344 40.0625-119.558594 58.480469-16.136718 8.132812-34.121094-7.359375-28.621094-24.457031 6.171876-12.308594-7.558593-3.300782 120.761719-66.0625 33.390625-16.417969 73.210938-19.449219 109.917969-6.839844zm60.523438 23.898438c0 1.640625-1.34375 2.960938-2.960938 2.960938h-38.601562c-1.640626 0-2.960938-1.320313-2.960938-2.960938v-158.820312c0-1.640626 1.320312-2.960938 2.960938-2.960938h38.601562c1.617188 0 2.960938 1.320312 2.960938 2.960938zm0 0"/><path d="m231.730469 318.644531c0 4.417969 3.582031 8 8 8s8-3.582031 8-8v-23.589843h8.75c20.777343 0 37.675781-16.902344 37.675781-37.675782 0-20.777344-16.898438-37.675781-37.675781-37.675781h-33.503907c-11.949218 0-21.671874-9.722656-21.671874-21.675781 0-11.949219 9.722656-21.675782 21.671874-21.675782h44.671876c5.796874 0 10.507812 4.714844 10.507812 10.507813 0 4.417969 3.582031 8 8 8 15.839844 0 7.328125-34.507813-18.507812-34.507813h-19.917969v-23.589843c0-4.417969-3.582031-8-8-8s-8 3.582031-8 8v23.589843h-8.753907c-20.773437 0-37.671874 16.902344-37.671874 37.675782 0 20.777344 16.898437 37.675781 37.671874 37.675781h33.503907c11.953125 0 21.675781 9.722656 21.675781 21.675781 0 11.949219-9.722656 21.675782-21.675781 21.675782h-44.671875c-5.789063 0-10.503906-4.714844-10.503906-10.507813 0-4.417969-3.582032-8-8-8-15.847657 0-7.3125 34.507813 18.503906 34.507813h19.921875zm0 0"/></g></svg>